<?xml version="1.0" standalone="no"?>
<!DOCTYPE svg PUBLIC "-//W3C//DTD SVG 20010904//EN"
 "http://www.w3.org/TR/2001/REC-SVG-20010904/DTD/svg10.dtd">
<svg version="1.0" xmlns="http://www.w3.org/2000/svg"
 width="512.000000pt" height="512.000000pt" viewBox="0 0 512.000000 512.000000"
 preserveAspectRatio="xMidYMid meet">
<metadata>
Created by potrace 1.11, written by Peter Selinger 2001-2013
</metadata>
<g transform="translate(0.000000,512.000000) scale(0.100000,-0.100000)"
fill="#000000" stroke="none">
<path d="M500 3052 l0 -1529 83 -7 c661 -55 1291 -360 1752 -849 l105 -112 0
455 0 455 -110 -3 c-101 -4 -344 11 -397 25 -22 5 -23 9 -23 119 0 63 3 114 8
114 4 0 61 -7 127 -15 66 -8 182 -15 258 -15 l137 0 0 345 0 345 -145 0 -146
0 3 108 3 107 143 3 142 3 0 309 0 310 -79 0 c-82 0 -258 -29 -332 -55 -23 -8
-45 -15 -50 -15 -5 0 -9 52 -9 115 l0 114 41 11 c117 32 225 51 322 57 59 3
107 9 107 12 0 13 -133 182 -213 273 -398 447 -985 756 -1572 828 -50 6 -105
13 -122 16 l-33 5 0 -1529z"/>
<path d="M4580 4574 c-14 -2 -65 -9 -115 -15 -671 -82 -1299 -450 -1711 -1002
-75 -101 -88 -133 -56 -143 56 -19 152 -70 189 -100 148 -122 195 -364 106
-553 -33 -71 -140 -179 -213 -216 l-54 -27 55 -17 c144 -45 254 -136 312 -258
30 -63 32 -75 32 -173 0 -84 -5 -119 -24 -173 -49 -144 -154 -258 -306 -333
-50 -24 -96 -44 -103 -44 -9 0 -12 -114 -12 -487 0 -410 2 -485 14 -473 7 8
48 53 91 100 440 478 1066 788 1718 852 l127 12 0 1528 c0 1216 -3 1528 -12
1527 -7 -1 -24 -3 -38 -5z"/>
<path d="M125 3860 l-120 -38 -3 -1567 -2 -1567 27 7 c684 175 1391 140 2028
-100 33 -13 -49 68 -160 158 -368 297 -811 479 -1284 527 -57 5 -131 10 -165
10 -83 0 -130 15 -160 51 l-26 31 0 1264 c0 695 -3 1263 -7 1263 -5 -1 -62
-18 -128 -39z"/>
<path d="M4860 2635 c0 -1167 -1 -1259 -17 -1286 -26 -44 -65 -56 -208 -63
-566 -28 -1073 -237 -1508 -621 -48 -43 -86 -79 -84 -81 2 -2 54 15 117 37
148 52 381 112 540 138 215 35 364 44 628 38 269 -6 421 -24 656 -77 72 -17
131 -30 133 -30 2 0 3 703 3 1563 l0 1564 -102 31 c-57 17 -115 34 -130 38
l-28 6 0 -1257z"/>
<path d="M2680 2926 c0 -145 3 -215 10 -211 6 4 23 30 38 58 24 47 27 62 27
157 0 89 -3 111 -22 146 -12 22 -29 46 -37 53 -14 12 -16 -7 -16 -203z"/>
<path d="M2680 2040 c0 -194 3 -280 11 -280 6 0 37 26 69 58 47 47 62 71 75
116 47 162 -2 307 -126 372 l-29 15 0 -281z"/>
</g>
</svg>
